<svg viewBox="0 0 48 48" xmlns="http://www.w3.org/2000/svg">
    <defs>
        <linearGradient id="goldGradient" x1="0%" y1="0%" x2="100%" y2="100%">
            <stop offset="0%" stop-color="#FEE28A"/>
            <stop offset="100%" stop-color="#E6B800"/>
        </linearGradient>
    </defs>
    <g>
        <path
                d="M46,24A12,12,0,0,0,34,12c-5.2,0-9.5,4.1-11.9,11.4C20.3,28.9,17.3,32,14,32a8,8,0,0,1,0-16h1.2l-1.6,1.6a1.9,1.9,0,0,0,.2,3,2.1,2.1,0,0,0,2.7-.2l4.9-5a1.9,1.9,0,0,0,0-2.8l-4.9-5a2.1,2.1,0,0,0-2.7-.2,1.9,1.9,0,0,0-.2,3L15.2,12H14a12,12,0,0,0,0,24c5.2,0,9.5-4.1,11.9-11.4C27.7,19.1,30.7,16,34,16a8,8,0,0,1,0,16H32.8l1.6-1.6a1.9,1.9,0,0,0-.2-3,2.1,2.1,0,0,0-2.7.2l-4.9,5a1.9,1.9,0,0,0,0,2.8l4.9,5a2.1,2.1,0,0,0,2.7.2,1.9,1.9,0,0,0,.2-3L32.8,36H34A12,12,0,0,0,46,24Z"
                fill="url(#goldGradient)"
                stroke="url(#goldGradient)"
                stroke-width="1"
                opacity="0.95"
        />
    </g>
</svg>
