<?xml version="1.0" encoding="iso-8859-1"?>
<!-- Uploaded to: SVG Repo, www.svgrepo.com, Generator: SVG Repo Mixer Tools -->
<svg height="800px" width="800px" version="1.1" id="Layer_1" xmlns="http://www.w3.org/2000/svg" xmlns:xlink="http://www.w3.org/1999/xlink" 
	 viewBox="0 0 512 512" xml:space="preserve">
<g>
	<path style="fill:#507C5C;" d="M384.393,383.607H127.607C57.243,383.607,0,326.364,0,256.001s57.243-127.608,127.607-127.608
		h52.958c7.596,0,13.757,6.16,13.757,13.757s-6.16,13.757-13.757,13.757h-52.958c-55.191,0.001-100.093,44.902-100.093,100.093
		c0,55.192,44.902,100.094,100.093,100.094h256.787c55.191,0,100.093-44.902,100.093-100.093
		c0-55.192-44.902-100.094-100.093-100.094h-94.729c-7.596,0-13.757-6.16-13.757-13.757s6.16-13.757,13.757-13.757h94.729
		c70.362,0,127.607,57.243,127.607,127.607S454.755,383.607,384.393,383.607z M379.602,334.046H294.32
		c-19.521,0-35.403-15.882-35.403-35.403V213.36c0-19.521,15.882-35.403,35.403-35.403h85.282c19.521,0,35.403,15.882,35.403,35.403
		v85.282C415.006,318.163,399.124,334.046,379.602,334.046z M294.32,205.469c-4.35,0-7.889,3.54-7.889,7.89v85.282
		c0,4.35,3.54,7.89,7.889,7.89h85.282c4.35,0,7.889-3.54,7.889-7.89v-85.282c0-4.35-3.54-7.89-7.889-7.89H294.32z"/>
	<path style="fill:#507C5C;" d="M384.393,383.607H127.607C57.243,383.607,0,326.364,0,256.001s57.243-127.608,127.607-127.608
		h52.958c7.596,0,13.757,6.16,13.757,13.757s-6.16,13.757-13.757,13.757h-52.958c-55.191,0.001-100.093,44.902-100.093,100.093
		c0,55.192,44.902,100.094,100.093,100.094h256.787c55.191,0,100.093-44.902,100.093-100.093
		c0-55.192-44.902-100.094-100.093-100.094h-94.729c-7.596,0-13.757-6.16-13.757-13.757s6.16-13.757,13.757-13.757h94.729
		c70.362,0,127.607,57.243,127.607,127.607S454.755,383.607,384.393,383.607z"/>
</g>
<path style="fill:#CFF09E;" d="M272.673,298.641v-30.819v-54.463c0-11.955,9.692-21.646,21.646-21.646h85.282
	c11.955,0,21.646,9.692,21.646,21.646v85.282c0,11.955-9.692,21.646-21.646,21.646H294.32
	C282.363,320.289,272.673,310.597,272.673,298.641z"/>
<path style="fill:#507C5C;" d="M379.602,334.046H294.32c-19.521,0-35.403-15.882-35.403-35.403V213.36
	c0-19.521,15.882-35.403,35.403-35.403h85.282c19.521,0,35.403,15.882,35.403,35.403v85.282
	C415.006,318.163,399.124,334.046,379.602,334.046z M294.32,205.469c-4.35,0-7.889,3.54-7.889,7.89v85.282
	c0,4.35,3.54,7.89,7.889,7.89h85.282c4.35,0,7.889-3.54,7.889-7.89v-85.282c0-4.35-3.54-7.89-7.889-7.89H294.32z"/>
</svg>